<svg width="132" height="160" viewBox="0 0 132 160" fill="none" xmlns="http://www.w3.org/2000/svg">
<g filter="url(#filter0_f_2830_145)">
<ellipse cx="66" cy="149.786" rx="20.3333" ry="7.2619" fill="black" fill-opacity="0.2"/>
</g>
<path d="M66 2.5C101.07 2.5 129.5 30.9299 129.5 66C129.5 92.6329 113.103 115.427 89.8643 124.858L71.4941 149.969C70.8633 150.835 70.0325 151.533 69.0771 152.012C68.1222 152.49 67.0672 152.738 66 152.738C64.9328 152.738 63.8778 152.49 62.9229 152.012C61.9675 151.533 61.1357 150.835 60.5049 149.97V149.969L42.1348 124.858C18.896 115.427 2.5 92.6326 2.5 66C2.5 30.9299 30.9299 2.5 66 2.5Z" fill="url(#paint0_linear_2830_145)" stroke="white" stroke-width="5"/>
<mask id="mask0_2830_145" style="mask-type:alpha" maskUnits="userSpaceOnUse" x="10" y="10" width="112" height="134">
<path fill-rule="evenodd" clip-rule="evenodd" d="M66 10C96.928 10 122 35.0541 122 65.96C122 89.6565 107.261 109.913 86.4436 118.074L69.1896 141.641C68.8299 142.134 68.3523 142.537 67.7972 142.815C67.242 143.093 66.6256 143.238 66 143.238C65.3744 143.238 64.758 143.093 64.2029 142.815C63.6477 142.537 63.1701 142.134 62.8104 141.641L45.5564 118.074C24.7393 109.913 10 89.6565 10 65.96C10 35.0541 35.0721 10 66 10Z" fill="url(#paint1_linear_2830_145)"/>
</mask>
<g mask="url(#mask0_2830_145)">
<path fill-rule="evenodd" clip-rule="evenodd" d="M82.2861 39.9667H49.7894L46.7249 42.0906L47.6806 49.9493L86.3369 48.1288L82.2861 39.9667Z" fill="#758797"/>
<path fill-rule="evenodd" clip-rule="evenodd" d="M85.1231 35.5063C83.5604 35.5063 82.3012 36.7656 82.3012 38.3282V47.9771H101.432V38.3282C101.432 36.7656 100.173 35.5063 98.6103 35.5063H85.1231ZM33.4803 35.5063C31.9177 35.5063 30.6584 36.7656 30.6584 38.3282V47.9771H49.7893V38.3282C49.7893 36.7656 48.5301 35.5063 46.9675 35.5063H33.4803Z" fill="#8598AB"/>
<path fill-rule="evenodd" clip-rule="evenodd" d="M127 95V88.261C127 85.647 122.619 84.1058 118.691 85.919C114.784 87.7321 108.71 87.7321 104.126 85.6017C99.5427 83.4712 93.4686 83.4712 88.8849 85.6017C84.3011 87.7321 78.2271 87.7321 73.6433 85.6017C71.3402 84.544 68.6757 84 66.0113 84C63.3468 84 60.6824 84.5288 58.3792 85.6017C53.7955 87.7321 47.7215 87.7321 43.1377 85.6017C40.8345 84.544 38.1701 84.0151 35.5056 84.0151C32.8412 84.0151 30.1768 84.544 27.8736 85.6017C23.2898 87.7321 17.2158 87.7321 13.3095 85.919C9.40311 84.1058 5 85.647 5 88.261V95H127Z" fill="#62D9FA"/>
<path d="M101.432 55.4869H30.6584V95.6451H101.432V55.4869Z" fill="#F0F4F6"/>
<path fill-rule="evenodd" clip-rule="evenodd" d="M82.286 62.9358C76.9458 62.9358 72.622 67.2596 72.622 72.5998C72.622 73.5556 72.7585 74.5114 73.0468 75.4217H91.5405C91.8136 74.4962 91.9501 73.5556 91.9501 72.5998C91.9501 67.2596 87.6263 62.9358 82.286 62.9358ZM49.7742 62.9358C44.4339 62.9358 40.1101 67.2596 40.1101 72.5998C40.1101 73.5556 40.2466 74.4962 40.5197 75.4065H59.0134C59.2865 74.5114 59.4382 73.5556 59.4382 72.5998C59.4382 67.2596 55.1144 62.9358 49.7742 62.9358Z" fill="#8598AB"/>
<path fill-rule="evenodd" clip-rule="evenodd" d="M30.6585 46.4296H101.417C103.92 46.4296 105.938 48.4473 105.938 50.9506C105.938 53.4538 103.92 55.4716 101.417 55.4716H30.6585C28.1552 55.4716 26.1375 53.4538 26.1375 50.9506C26.1375 48.4473 28.1552 46.4296 30.6585 46.4296Z" fill="#9DACB9"/>
<path fill-rule="evenodd" clip-rule="evenodd" d="M66.0452 91C63.3793 91 60.7133 91.523 58.4089 92.5839C53.8226 94.6908 47.7452 94.6908 43.1589 92.5839C40.8544 91.5379 38.1885 91.0149 35.5226 91.0149C32.8567 91.0149 30.1907 91.5379 27.8863 92.5839C23.3 94.6908 17.2226 94.6908 13.3141 92.8977C9.40556 91.1046 5 92.6287 5 95.2138V101.878L68.4852 104L127 101.878V95.2138C127 92.6287 122.617 91.1046 118.686 92.8977C114.755 94.6908 108.7 94.6908 104.114 92.5839C99.5274 90.477 93.45 90.477 88.8637 92.5839C84.2774 94.6908 78.2 94.6908 73.6137 92.5839C71.3093 91.5379 68.6433 91 65.9774 91H66.0452Z" fill="#0ACFFB"/>
<path fill-rule="evenodd" clip-rule="evenodd" d="M66.0226 97C63.3576 97 60.6927 97.5607 58.3891 98.6983C53.8045 100.957 47.7294 100.957 43.1448 98.6983C40.8412 97.5768 38.1762 97.016 35.5113 97.016C32.8464 97.016 30.1814 97.5768 27.8778 98.6983C23.2932 100.957 17.2181 100.957 13.311 99.0347C9.40392 97.1122 5 98.7463 5 101.518V103.873C5 106.709 8.22955 109 12.227 109H119.773C123.77 109 127 106.709 127 103.873V101.518C127 98.7463 122.619 97.1122 118.689 99.0347C114.782 100.957 108.707 100.957 104.122 98.6983C99.5376 96.4393 93.4624 96.4393 88.8778 98.6983C84.2932 100.957 78.2181 100.957 73.6335 98.6983C71.3299 97.5768 68.6649 97 66 97H66.0226Z" fill="#62D9FA"/>
<path fill-rule="evenodd" clip-rule="evenodd" d="M75.8686 72.5999C74.306 72.5999 73.0468 73.8591 73.0468 75.4217V96.3276L91.5253 95.2505V75.4217C91.5253 73.8591 90.2661 72.5999 88.7035 72.5999H75.8686ZM43.3568 72.5999C41.7941 72.5999 40.5349 73.8591 40.5349 75.4217V95.2505L59.0134 96.3276V75.4217C59.0134 73.8591 57.7542 72.5999 56.1916 72.5999H43.3568Z" fill="#0ACFFB"/>
<path fill-rule="evenodd" clip-rule="evenodd" d="M47.0131 79.3663C46.1787 79.3663 45.496 80.049 45.496 80.8835V82.9467C45.496 83.7812 46.1787 84.4639 47.0131 84.4639C47.8475 84.4639 48.5302 83.7812 48.5302 82.9467V80.8835C48.5302 80.049 47.8475 79.3663 47.0131 79.3663Z" fill="#62D9FA"/>
<path fill-rule="evenodd" clip-rule="evenodd" d="M52.5506 79.3663C51.7162 79.3663 51.0334 80.049 51.0334 80.8835V86.2844C51.0334 87.1188 51.7162 87.8015 52.5506 87.8015C53.385 87.8015 54.0677 87.1188 54.0677 86.2844V80.8835C54.0677 80.049 53.385 79.3663 52.5506 79.3663Z" fill="#62D9FA"/>
<path fill-rule="evenodd" clip-rule="evenodd" d="M85.0624 79.3663C84.228 79.3663 83.5453 80.049 83.5453 80.8835V82.9467C83.5453 83.7812 84.228 84.4639 85.0624 84.4639C85.8968 84.4639 86.5795 83.7812 86.5795 82.9467V80.8835C86.5795 80.049 85.8968 79.3663 85.0624 79.3663Z" fill="#62D9FA"/>
<path fill-rule="evenodd" clip-rule="evenodd" d="M79.5251 79.3663C78.6906 79.3663 78.0079 80.049 78.0079 80.8835V86.2844C78.0079 87.1188 78.6906 87.8015 79.5251 87.8015C80.3595 87.8015 81.0422 87.1188 81.0422 86.2844V80.8835C81.0422 80.049 80.3595 79.3663 79.5251 79.3663Z" fill="#62D9FA"/>
</g>
<defs>
<filter id="filter0_f_2830_145" x="43.6666" y="140.524" width="44.6666" height="18.5238" filterUnits="userSpaceOnUse" color-interpolation-filters="sRGB">
<feFlood flood-opacity="0" result="BackgroundImageFix"/>
<feBlend mode="normal" in="SourceGraphic" in2="BackgroundImageFix" result="shape"/>
<feGaussianBlur stdDeviation="1" result="effect1_foregroundBlur_2830_145"/>
</filter>
<linearGradient id="paint0_linear_2830_145" x1="66" y1="5" x2="66" y2="150.238" gradientUnits="userSpaceOnUse">
<stop stop-color="#8598AB"/>
<stop offset="1" stop-color="#0ACFFB"/>
</linearGradient>
<linearGradient id="paint1_linear_2830_145" x1="66" y1="10" x2="66" y2="143.238" gradientUnits="userSpaceOnUse">
<stop stop-color="#FFC219"/>
<stop offset="1" stop-color="#82500B"/>
</linearGradient>
</defs>
</svg>
